<mxfile host="app.diagrams.net" modified="2024-07-13T13:38:56.469Z" agent="Mozilla/5.0 (X11; Linux x86_64) AppleWebKit/537.36 (KHTML, like Gecko) Chrome/126.0.0.0 Safari/537.36" etag="H9Sq8naoJfMx1KtTsyh2" version="24.6.5" type="device">
  <diagram name="Page-1" id="_v0UF3-_GroFpb5yWLBK">
    <mxGraphModel dx="1050" dy="561" grid="1" gridSize="10" guides="1" tooltips="1" connect="1" arrows="1" fold="1" page="1" pageScale="1" pageWidth="850" pageHeight="1100" math="0" shadow="0">
      <root>
        <mxCell id="0" />
        <mxCell id="1" parent="0" />
        <mxCell id="v-Ma-tHme306sdydlvZ_-3" value="" style="edgeStyle=orthogonalEdgeStyle;rounded=0;orthogonalLoop=1;jettySize=auto;html=1;" edge="1" parent="1" source="v-Ma-tHme306sdydlvZ_-1" target="v-Ma-tHme306sdydlvZ_-2">
          <mxGeometry relative="1" as="geometry" />
        </mxCell>
        <mxCell id="v-Ma-tHme306sdydlvZ_-1" value="entities(domain)" style="rounded=0;whiteSpace=wrap;html=1;" vertex="1" parent="1">
          <mxGeometry x="360" y="20" width="120" height="60" as="geometry" />
        </mxCell>
        <mxCell id="v-Ma-tHme306sdydlvZ_-9" style="edgeStyle=orthogonalEdgeStyle;rounded=0;orthogonalLoop=1;jettySize=auto;html=1;" edge="1" parent="1" source="v-Ma-tHme306sdydlvZ_-2" target="v-Ma-tHme306sdydlvZ_-7">
          <mxGeometry relative="1" as="geometry" />
        </mxCell>
        <mxCell id="v-Ma-tHme306sdydlvZ_-2" value="repositories(infra)" style="rounded=0;whiteSpace=wrap;html=1;" vertex="1" parent="1">
          <mxGeometry x="360" y="120" width="120" height="60" as="geometry" />
        </mxCell>
        <mxCell id="v-Ma-tHme306sdydlvZ_-10" style="edgeStyle=orthogonalEdgeStyle;rounded=0;orthogonalLoop=1;jettySize=auto;html=1;" edge="1" parent="1" source="v-Ma-tHme306sdydlvZ_-7" target="v-Ma-tHme306sdydlvZ_-8">
          <mxGeometry relative="1" as="geometry" />
        </mxCell>
        <mxCell id="v-Ma-tHme306sdydlvZ_-7" value="services(logic)" style="rounded=0;whiteSpace=wrap;html=1;" vertex="1" parent="1">
          <mxGeometry x="360" y="230" width="120" height="60" as="geometry" />
        </mxCell>
        <mxCell id="v-Ma-tHme306sdydlvZ_-8" value="entrypoints&lt;div&gt;(application)&lt;/div&gt;" style="rounded=0;whiteSpace=wrap;html=1;" vertex="1" parent="1">
          <mxGeometry x="360" y="330" width="120" height="60" as="geometry" />
        </mxCell>
      </root>
    </mxGraphModel>
  </diagram>
</mxfile>
